# xmcd
#
# Track frame offsets: 
#        150
#        22256
#        43548
#        66077
#        82553
#        111552
#        124767
#        138463
#        155793
#        182885
#
# Disc length: 2717 seconds
#
# Revision: 0
# Processed by: cddbd v1.5.2PL0 Copyright (c) Steve Scherf et al.
# Submitted via: ExactAudioCopy v0.95b4
#
DISCID=8b0a9b0a
DTITLE=aus - Lang
DYEAR=2006
DGENRE=Electronica
TTITLE0=Clocks
TTITLE1=Halo
TTITLE2=Double Talk
TTITLE3=New Look
TTITLE4=Beyond The Curve
TTITLE5=Opaque
TTITLE6=Aslope
TTITLE7=Headphone Girl
TTITLE8=Moraine
TTITLE9=Stargazing
EXTD=
EXTT0=
EXTT1=
EXTT2=
EXTT3=
EXTT4=
EXTT5=
EXTT6=
EXTT7=
EXTT8=
EXTT9=
PLAYORDER=
